<svg data-v-0dd9719b="" version="1.0" xmlns="http://www.w3.org/2000/svg" xmlns:xlink="http://www.w3.org/1999/xlink" width="100%" height="100%" viewBox="0 0 340.000000 250.000000" preserveAspectRatio="xMidYMid meet" color-interpolation-filters="sRGB" style="margin: auto;"> <rect data-v-0dd9719b="" x="0" y="0" width="100%" height="100%" fill="#fff" fill-opacity="1" class="background"></rect> <rect data-v-0dd9719b="" x="0" y="0" width="100%" height="100%" fill="url(#watermark)" fill-opacity="1" class="watermarklayer"></rect> <g data-v-0dd9719b="" fill="#333" class="icon-text-wrapper icon-svg-group iconsvg" transform="translate(48.13500213623047,94.96395683288574)"><g class="iconsvg-imagesvg" transform="translate(0,0)"><g><rect fill="#333" fill-opacity="0" stroke-width="2" x="0" y="0" width="60" height="60.07208650380456" class="image-rect"></rect> <svg x="0" y="0" width="60" height="60.07208650380456" filtersec="colorsb15235889" class="image-svg-svg primary" style="overflow: visible;"><svg xmlns="http://www.w3.org/2000/svg" viewBox="0 -0.00001430726933904225 99.8800048828125 100.00004577636719"><g fill-rule="evenodd"><path d="M10.85 81.18L46.64 87V76.88l-40.3-2.39a49.59 49.59 0 0 0 4.51 6.69zM51.52 100v-8.74l-37.47-6.45A49.85 49.85 0 0 0 49.94 100h1.58zM1.57 62.7l63.7 1.11v10L3.15 67.68a48.89 48.89 0 0 1-1.58-5zM.49 57.48l56.82 3.27V50.54L0 52.53c.08 1.67.25 3.32.49 4.95zM0 47.19L44.45 49V38.39l-43.94 4C.27 44 .11 45.58 0 47.19zM1.62 37.09l32.83-1.35v-10l-30.66 5a49 49 0 0 0-2.17 6.35zM6.32 25.55l35.4-3.08V11.64l-30 6.12a49.44 49.44 0 0 0-5.41 7.79zM49.63 0v9.2L15.26 14A49.84 49.84 0 0 1 49.63 0z" fill="#2491eb"></path><path d="M90 80l-43.36 7V76.88l47.12-2.8A50.6 50.6 0 0 1 90 80zM51.52 100v-8.74l34.33-6.48A49.82 49.82 0 0 1 51.52 100zM96.25 68.86l-31 5v-10l33-1.08a49 49 0 0 1-2 6.13zM99.42 57.18l-42.11 3.57V50.54l42.57 1.71c-.07 1.66-.23 3.31-.46 4.93zM99.88 47.67L44.45 49V38.39l54.81 3.38a49.74 49.74 0 0 1 .62 5.9zM98.19 36.88l-63.74-1.14v-10l62 5.95a48.69 48.69 0 0 1 1.72 5.2zM93.78 26l-52.06-3.53V11.64l47.39 7.29a50.45 50.45 0 0 1 4.67 7zM49.63 0v9.2l35.18 5A49.82 49.82 0 0 0 49.94 0z" fill="#145593"></path></g></svg></svg> <!----></g></g> <g transform="translate(67,17.036043167114258)"><g data-gra="path-name" fill-rule="" class="tp-name iconsvg-namesvg"><g transform="scale(1)"><g><path d="M12.66-25.44L12.66-8.79Q12.66-6.66 12.13-4.97 11.61-3.28 10.59-2.12 9.57-0.96 8.08-0.34 6.59 0.28 4.65 0.28L4.65 0.28Q2.93 0.28 1.07-0.21L1.07-0.21Q1.1-0.73 1.15-1.23 1.21-1.74 1.26-2.24L1.26-2.24Q1.3-2.54 1.48-2.72 1.67-2.91 2.04-2.91L2.04-2.91Q2.36-2.91 2.89-2.75 3.43-2.59 4.31-2.59L4.31-2.59Q5.49-2.59 6.4-2.95 7.31-3.3 7.94-4.05 8.57-4.79 8.9-5.96 9.23-7.12 9.23-8.72L9.23-8.72 9.23-25.44 12.66-25.44ZM22.93-25.44L22.93 0 19.49 0 19.49-25.44 22.93-25.44ZM31.53-25.44L31.53-25.44Q31.99-25.44 32.21-25.32 32.43-25.21 32.72-24.85L32.72-24.85 47.45-5.68Q47.4-6.14 47.38-6.58 47.36-7.01 47.36-7.42L47.36-7.42 47.36-25.44 50.38-25.44 50.38 0 48.64 0Q48.23 0 47.96-0.14 47.68-0.28 47.41-0.62L47.41-0.62 32.7-19.78Q32.73-19.33 32.75-18.91 32.77-18.48 32.77-18.12L32.77-18.12 32.77 0 29.75 0 29.75-25.44 31.53-25.44ZM67.93-2.5L67.93-2.5Q68.96-2.5 69.83-2.6 70.69-2.7 71.45-2.89 72.21-3.09 72.89-3.36 73.56-3.64 74.24-3.99L74.24-3.99 74.24-9.6 70.3-9.6Q69.96-9.6 69.75-9.8 69.55-9.99 69.55-10.28L69.55-10.28 69.55-12.23 77.36-12.23 77.36-2.47Q76.4-1.78 75.36-1.26 74.33-0.75 73.14-0.4 71.96-0.05 70.62 0.12 69.27 0.28 67.69 0.28L67.69 0.28Q64.92 0.28 62.61-0.67 60.3-1.62 58.63-3.33 56.96-5.04 56.03-7.44 55.1-9.83 55.1-12.71L55.1-12.71Q55.1-15.62 56.01-18.02 56.93-20.41 58.62-22.13 60.32-23.84 62.72-24.78 65.13-25.72 68.11-25.72L68.11-25.72Q69.62-25.72 70.92-25.5 72.21-25.28 73.32-24.86 74.43-24.44 75.37-23.85 76.31-23.25 77.13-22.51L77.13-22.51 76.15-20.95Q75.85-20.47 75.37-20.47L75.37-20.47Q75.09-20.47 74.75-20.66L74.75-20.66Q74.31-20.91 73.76-21.27 73.21-21.62 72.42-21.95 71.63-22.28 70.55-22.51 69.48-22.74 68.01-22.74L68.01-22.74Q65.86-22.74 64.12-22.04 62.38-21.34 61.15-20.03 59.93-18.73 59.27-16.87 58.62-15.02 58.62-12.71L58.62-12.71Q58.62-10.3 59.3-8.41 59.98-6.51 61.22-5.2 62.47-3.89 64.17-3.2 65.88-2.5 67.93-2.5ZM80.06-25.44L99.98-25.44 99.98-22.54 91.76-22.54 91.76 0 88.31 0 88.31-22.54 80.06-22.54 80.06-25.44ZM125.49-12.71L125.49-12.71Q125.49-9.85 124.58-7.46 123.67-5.08 122.02-3.36 120.37-1.63 118.06-0.68 115.74 0.27 112.93 0.27L112.93 0.27Q110.13 0.27 107.82-0.68 105.51-1.63 103.86-3.36 102.21-5.08 101.31-7.46 100.4-9.85 100.4-12.71L100.4-12.71Q100.4-15.57 101.31-17.96 102.21-20.34 103.86-22.07 105.51-23.8 107.82-24.76 110.13-25.72 112.93-25.72L112.93-25.72Q115.74-25.72 118.06-24.76 120.37-23.8 122.02-22.07 123.67-20.34 124.58-17.96 125.49-15.57 125.49-12.71ZM121.95-12.71L121.95-12.71Q121.95-15.05 121.31-16.92 120.67-18.78 119.5-20.07 118.33-21.36 116.66-22.05 114.99-22.74 112.93-22.74L112.93-22.74Q110.89-22.74 109.22-22.05 107.56-21.36 106.38-20.07 105.2-18.78 104.56-16.92 103.92-15.05 103.92-12.71L103.92-12.71Q103.92-10.37 104.56-8.51 105.2-6.66 106.38-5.37 107.56-4.08 109.22-3.4 110.89-2.72 112.93-2.72L112.93-2.72Q114.99-2.72 116.66-3.4 118.33-4.08 119.5-5.37 120.67-6.66 121.31-8.51 121.95-10.37 121.95-12.71ZM131.96-25.44L131.96-25.44Q132.43-25.44 132.65-25.32 132.87-25.21 133.15-24.85L133.15-24.85 147.89-5.68Q147.83-6.14 147.82-6.58 147.8-7.01 147.8-7.42L147.8-7.42 147.8-25.44 150.82-25.44 150.82 0 149.08 0Q148.67 0 148.39-0.14 148.12-0.28 147.85-0.62L147.85-0.62 133.14-19.78Q133.17-19.33 133.19-18.91 133.21-18.48 133.21-18.12L133.21-18.12 133.21 0 130.19 0 130.19-25.44 131.96-25.44ZM168.37-2.5L168.37-2.5Q169.4-2.5 170.26-2.6 171.12-2.7 171.89-2.89 172.65-3.09 173.33-3.36 174-3.64 174.67-3.99L174.67-3.99 174.67-9.6 170.73-9.6Q170.4-9.6 170.19-9.8 169.99-9.99 169.99-10.28L169.99-10.28 169.99-12.23 177.8-12.23 177.8-2.47Q176.84-1.78 175.8-1.26 174.76-0.75 173.58-0.4 172.4-0.05 171.05 0.12 169.7 0.28 168.12 0.28L168.12 0.28Q165.36 0.28 163.05-0.67 160.74-1.62 159.07-3.33 157.4-5.04 156.47-7.44 155.54-9.83 155.54-12.71L155.54-12.71Q155.54-15.62 156.45-18.02 157.37-20.41 159.06-22.13 160.76-23.84 163.16-24.78 165.57-25.72 168.55-25.72L168.55-25.72Q170.06-25.72 171.36-25.5 172.65-25.28 173.76-24.86 174.87-24.44 175.81-23.85 176.75-23.25 177.57-22.51L177.57-22.51 176.59-20.95Q176.29-20.47 175.81-20.47L175.81-20.47Q175.53-20.47 175.19-20.66L175.19-20.66Q174.75-20.91 174.2-21.27 173.64-21.62 172.86-21.95 172.07-22.28 170.99-22.51 169.92-22.74 168.44-22.74L168.44-22.74Q166.3-22.74 164.56-22.04 162.82-21.34 161.59-20.03 160.37-18.73 159.71-16.87 159.05-15.02 159.05-12.71L159.05-12.71Q159.05-10.3 159.74-8.41 160.42-6.51 161.66-5.2 162.91-3.89 164.61-3.2 166.31-2.5 168.37-2.5Z" transform="translate(-1.0700000524520874, 25.719999313354492)"></path></g> <!----> <!----> <!----> <!----> <!----> <!----> <!----></g></g> <!----></g></g><defs v-gra="od"></defs></svg>